<svg width="16" height="7" viewBox="0 0 16 7" fill="none" xmlns="http://www.w3.org/2000/svg">
<path d="M15.9999 1.1135C16.0005 1.25674 15.9628 1.39827 15.8897 1.52769C15.8165 1.65711 15.7097 1.77112 15.5771 1.86136L8.72061 6.49233C8.51613 6.63336 8.25965 6.71045 7.99496 6.71045C7.73027 6.71045 7.47379 6.63336 7.26932 6.49233L0.412821 1.69837C0.179452 1.53562 0.0326951 1.30176 0.0048352 1.04823C-0.0230247 0.794704 0.0702944 0.542272 0.264263 0.34647C0.458232 0.150669 0.736961 0.0275368 1.03913 0.0041618C1.34131 -0.0192137 1.64217 0.0590829 1.87554 0.221827L8.00068 4.50763L14.1258 0.365646C14.2936 0.248402 14.4978 0.173926 14.7144 0.15103C14.931 0.128135 15.1509 0.157778 15.3481 0.236452C15.5452 0.315127 15.7114 0.43954 15.8269 0.59497C15.9424 0.7504 16.0025 0.930343 15.9999 1.1135Z" fill="#AEAEAE"/>
</svg>
