<svg width="16" height="16" viewBox="0 0 16 16" fill="none" xmlns="http://www.w3.org/2000/svg">
<path d="M2.3999 3.7998H13.5999L12.4939 13.7538C12.456 14.0964 12.293 14.4129 12.0363 14.6428C11.7795 14.8727 11.447 14.9998 11.1023 14.9998H4.8975C4.55285 14.9998 4.2203 14.8727 3.96353 14.6428C3.70676 14.4129 3.54381 14.0964 3.5059 13.7538L2.3999 3.7998Z" stroke="black" stroke-width="1.5" stroke-linecap="round" stroke-linejoin="round"/>
<path d="M4.74155 1.8029C4.85478 1.56278 5.03394 1.3598 5.25815 1.21764C5.48236 1.07548 5.74237 0.999997 6.00785 1H9.99225C10.2578 0.999864 10.518 1.07528 10.7423 1.21745C10.9667 1.35962 11.146 1.56267 11.2592 1.8029L12.2 3.8H3.80005L4.74155 1.8029Z" stroke="black" stroke-width="1.5" stroke-linecap="round" stroke-linejoin="round"/>
<path d="M1 3.7998H15" stroke="black" stroke-width="1.5" stroke-linecap="round" stroke-linejoin="round"/>
<path d="M6.6001 7.2998V10.7998" stroke="black" stroke-width="1.5" stroke-linecap="round" stroke-linejoin="round"/>
<path d="M9.3999 7.2998V10.7998" stroke="black" stroke-width="1.5" stroke-linecap="round" stroke-linejoin="round"/>
</svg>
