<svg width="31" height="30" viewBox="0 0 31 30" fill="none" xmlns="http://www.w3.org/2000/svg">
<path d="M18.3555 14.9174L30.4549 2.76743C30.7268 2.44859 30.8689 2.03847 30.8528 1.61901C30.8366 1.19955 30.6635 0.801647 30.3679 0.504823C30.0723 0.207998 29.6761 0.0341104 29.2583 0.0179084C28.8406 0.00170651 28.4322 0.144384 28.1147 0.417428L16.0153 12.5674L3.91596 0.400761C3.59845 0.127717 3.19003 -0.0149589 2.77232 0.00124298C2.35461 0.0174449 1.95837 0.191331 1.66278 0.488156C1.36719 0.78498 1.19403 1.18288 1.17789 1.60234C1.16176 2.0218 1.30384 2.43192 1.57575 2.75076L13.6751 14.9174L1.55915 27.0674C1.38541 27.2168 1.2443 27.4007 1.14468 27.6075C1.04505 27.8143 0.98907 28.0395 0.980241 28.269C0.971412 28.4985 1.00993 28.7274 1.09337 28.9413C1.17681 29.1552 1.30338 29.3494 1.46513 29.5118C1.62687 29.6743 1.82031 29.8014 2.03329 29.8852C2.24628 29.9689 2.47421 30.0076 2.70279 29.9988C2.93136 29.9899 3.15565 29.9337 3.36156 29.8336C3.56747 29.7336 3.75057 29.5919 3.89936 29.4174L16.0153 17.2674L28.1147 29.4174C28.4322 29.6905 28.8406 29.8331 29.2583 29.8169C29.6761 29.8007 30.0723 29.6269 30.3679 29.33C30.6635 29.0332 30.8366 28.6353 30.8528 28.2158C30.8689 27.7964 30.7268 27.3863 30.4549 27.0674L18.3555 14.9174Z" fill="white"/>
</svg>
